<svg width="130" height="130" viewBox="0 0 130 130" fill="none" xmlns="http://www.w3.org/2000/svg">
<rect x="0.5" y="0.5" width="129" height="129" rx="8.5" fill="white"/>
<path d="M31 78.1769C31 78.1769 42.4231 72.6385 53.8462 72.6385L62.4308 46.1231C62.7769 44.7385 63.6769 43.9077 64.7154 43.9077C65.8231 43.9077 66.7923 44.8077 67.0692 46.1231L75.6538 72.6385C89.2231 72.6385 98.5 78.1769 98.5 78.1769L79.1154 25.5615C78.5615 23.9692 77.5923 23 76.3462 23H53.1538C51.9077 23 51.0077 23.9692 50.3846 25.5615L31 78.1769Z" fill="#101112"/>
<path d="M52.9462 95.2769C49.1385 91.8154 47.9616 84.4077 49.5539 79.0769C52.3231 82.4692 56.2001 83.5077 60.2154 84.1308C66.377 85.0308 72.4001 84.6846 78.1462 81.9154L80.0847 80.7384C80.8313 83.2766 80.7506 85.9866 79.8545 88.4759C78.9583 90.9652 77.2931 93.1047 75.1001 94.5846L71.2924 97.2154C67.4154 99.8461 66.3077 102.892 67.8308 107.392L67.9693 107.877C66.0749 107.1 64.4754 105.742 63.4001 104C62.2365 102.231 61.6113 100.163 61.6001 98.0461C61.6001 97.0077 61.6001 95.9692 61.4616 94.9308C61.1154 92.3692 59.9385 91.2615 57.6539 91.1923C55.3693 91.1231 53.5693 92.5769 53.0847 94.7923L52.9462 95.2769Z" fill="url(#paint0_linear_4_244)"/>
<rect x="0.5" y="0.5" width="129" height="129" rx="8.5" stroke="#F9D7EB"/>
<defs>
<linearGradient id="paint0_linear_4_244" x1="64.7154" y1="103.654" x2="73.5077" y2="74.7154" gradientUnits="userSpaceOnUse">
<stop stop-color="#D83333"/>
<stop offset="1" stop-color="#F041FF"/>
</linearGradient>
</defs>
</svg>
